<mxfile host="65bd71144e">
    <diagram id="UULR5O7AANGFrhGrqhyg" name="Page-1">
        <mxGraphModel dx="418" dy="519" grid="1" gridSize="10" guides="1" tooltips="1" connect="1" arrows="1" fold="1" page="1" pageScale="1" pageWidth="850" pageHeight="1100" math="0" shadow="0">
            <root>
                <mxCell id="0"/>
                <mxCell id="1" parent="0"/>
                <mxCell id="29" style="edgeStyle=orthogonalEdgeStyle;rounded=0;orthogonalLoop=1;jettySize=auto;html=1;entryX=0.5;entryY=0;entryDx=0;entryDy=0;fontSize=24;fontColor=#FFFFFF;" parent="1" source="2" target="3" edge="1">
                    <mxGeometry relative="1" as="geometry"/>
                </mxCell>
                <mxCell id="2" value="Javascript which we write" style="rounded=0;whiteSpace=wrap;html=1;" parent="1" vertex="1">
                    <mxGeometry x="320" width="240" height="110" as="geometry"/>
                </mxCell>
                <mxCell id="15" style="edgeStyle=orthogonalEdgeStyle;rounded=0;orthogonalLoop=1;jettySize=auto;html=1;entryX=0.75;entryY=0;entryDx=0;entryDy=0;fontSize=24;fontColor=#000000;" parent="1" source="3" target="5" edge="1">
                    <mxGeometry relative="1" as="geometry">
                        <Array as="points">
                            <mxPoint x="440" y="440"/>
                            <mxPoint x="380" y="440"/>
                        </Array>
                    </mxGeometry>
                </mxCell>
                <mxCell id="16" style="edgeStyle=orthogonalEdgeStyle;rounded=0;orthogonalLoop=1;jettySize=auto;html=1;fontSize=24;fontColor=#000000;" parent="1" source="3" target="4" edge="1">
                    <mxGeometry relative="1" as="geometry"/>
                </mxCell>
                <mxCell id="3" value="" style="whiteSpace=wrap;html=1;aspect=fixed;" parent="1" vertex="1">
                    <mxGeometry x="320" y="160" width="240" height="240" as="geometry"/>
                </mxCell>
                <mxCell id="4" value="libuv" style="whiteSpace=wrap;html=1;aspect=fixed;" parent="1" vertex="1">
                    <mxGeometry x="480" y="480" width="80" height="80" as="geometry"/>
                </mxCell>
                <mxCell id="5" value="V8" style="whiteSpace=wrap;html=1;aspect=fixed;" parent="1" vertex="1">
                    <mxGeometry x="320" y="480" width="80" height="80" as="geometry"/>
                </mxCell>
                <mxCell id="6" value="&lt;font style=&quot;font-size: 24px ; background-color: rgb(255 , 230 , 204)&quot; color=&quot;#000000&quot;&gt;Node&lt;/font&gt;" style="text;html=1;align=center;verticalAlign=middle;whiteSpace=wrap;rounded=0;fillColor=#60a917;fontColor=#ffffff;strokeColor=#2D7600;" parent="1" vertex="1">
                    <mxGeometry x="230" y="270" width="60" height="30" as="geometry"/>
                </mxCell>
                <mxCell id="7" value="&lt;font color=&quot;#000000&quot;&gt;&lt;span style=&quot;font-size: 24px ; background-color: rgb(255 , 230 , 204)&quot;&gt;http&lt;/span&gt;&lt;/font&gt;" style="text;html=1;align=center;verticalAlign=middle;whiteSpace=wrap;rounded=0;fillColor=#60a917;fontColor=#ffffff;strokeColor=#2D7600;" parent="1" vertex="1">
                    <mxGeometry x="340" y="200" width="80" height="50" as="geometry"/>
                </mxCell>
                <mxCell id="8" value="&lt;font style=&quot;font-size: 24px ; background-color: rgb(255 , 230 , 204)&quot; color=&quot;#000000&quot;&gt;crypto&lt;/font&gt;" style="text;html=1;align=center;verticalAlign=middle;whiteSpace=wrap;rounded=0;fillColor=#60a917;fontColor=#ffffff;strokeColor=#2D7600;" parent="1" vertex="1">
                    <mxGeometry x="460" y="200" width="80" height="50" as="geometry"/>
                </mxCell>
                <mxCell id="9" value="&lt;font style=&quot;font-size: 24px ; background-color: rgb(255 , 230 , 204)&quot; color=&quot;#000000&quot;&gt;fs&lt;/font&gt;" style="text;html=1;align=center;verticalAlign=middle;whiteSpace=wrap;rounded=0;fillColor=#60a917;fontColor=#ffffff;strokeColor=#2D7600;" parent="1" vertex="1">
                    <mxGeometry x="340" y="290" width="80" height="50" as="geometry"/>
                </mxCell>
                <mxCell id="10" value="&lt;font style=&quot;font-size: 24px ; background-color: rgb(255 , 230 , 204)&quot; color=&quot;#000000&quot;&gt;path&lt;/font&gt;" style="text;html=1;align=center;verticalAlign=middle;whiteSpace=wrap;rounded=0;fillColor=#60a917;fontColor=#ffffff;strokeColor=#2D7600;" parent="1" vertex="1">
                    <mxGeometry x="460" y="290" width="80" height="50" as="geometry"/>
                </mxCell>
                <mxCell id="17" value="" style="strokeWidth=2;html=1;shape=mxgraph.flowchart.annotation_2;align=left;labelPosition=right;pointerEvents=1;labelBackgroundColor=#FFE6CC;fontSize=24;fontColor=#000000;" parent="1" vertex="1">
                    <mxGeometry x="560" y="220" width="50" height="100" as="geometry"/>
                </mxCell>
                <mxCell id="18" value="&lt;font color=&quot;#f19c99&quot;&gt;Some of Node Library&lt;/font&gt;" style="text;html=1;align=center;verticalAlign=middle;resizable=0;points=[];autosize=1;strokeColor=none;fillColor=none;fontSize=24;fontColor=#000000;" parent="1" vertex="1">
                    <mxGeometry x="590" y="255" width="250" height="30" as="geometry"/>
                </mxCell>
                <mxCell id="20" value="" style="strokeWidth=2;html=1;shape=mxgraph.flowchart.annotation_2;align=left;labelPosition=right;pointerEvents=1;labelBackgroundColor=#FFE6CC;fontSize=24;fontColor=#FFFFFF;" parent="1" vertex="1">
                    <mxGeometry x="560" y="470" width="50" height="100" as="geometry"/>
                </mxCell>
                <mxCell id="22" value="" style="strokeWidth=2;html=1;shape=mxgraph.flowchart.annotation_2;align=left;labelPosition=right;pointerEvents=1;labelBackgroundColor=#FFE6CC;fontSize=24;fontColor=#FFFFFF;rotation=-180;" parent="1" vertex="1">
                    <mxGeometry x="270" y="470" width="50" height="100" as="geometry"/>
                </mxCell>
                <mxCell id="23" value="&lt;font color=&quot;#f19c99&quot;&gt;&amp;nbsp; &amp;nbsp;70% C++&lt;br&gt;30% JS&lt;/font&gt;" style="text;html=1;align=center;verticalAlign=middle;resizable=0;points=[];autosize=1;strokeColor=none;fillColor=none;fontSize=24;fontColor=#FFFFFF;" parent="1" vertex="1">
                    <mxGeometry x="150" y="490" width="140" height="60" as="geometry"/>
                </mxCell>
                <mxCell id="24" value="&lt;font color=&quot;#f19c99&quot;&gt;100% C/C++&lt;br&gt;&lt;br&gt;&lt;/font&gt;" style="text;html=1;align=center;verticalAlign=middle;resizable=0;points=[];autosize=1;strokeColor=none;fillColor=none;fontSize=24;fontColor=#FFFFFF;" parent="1" vertex="1">
                    <mxGeometry x="590" y="485" width="160" height="70" as="geometry"/>
                </mxCell>
                <mxCell id="25" value="" style="strokeWidth=2;html=1;shape=mxgraph.flowchart.annotation_2;align=left;labelPosition=right;pointerEvents=1;labelBackgroundColor=#FFE6CC;fontSize=24;fontColor=#FFFFFF;rotation=-180;" parent="1" vertex="1">
                    <mxGeometry x="70" y="165" width="250" height="240" as="geometry"/>
                </mxCell>
                <mxCell id="26" value="&lt;font color=&quot;#f19c99&quot;&gt;50% JS&lt;br&gt;&amp;nbsp; 50% C++&lt;/font&gt;" style="text;html=1;align=center;verticalAlign=middle;resizable=0;points=[];autosize=1;strokeColor=none;fillColor=none;fontSize=24;fontColor=#FFFFFF;" parent="1" vertex="1">
                    <mxGeometry x="45" y="250" width="130" height="60" as="geometry"/>
                </mxCell>
                <mxCell id="27" value="" style="strokeWidth=2;html=1;shape=mxgraph.flowchart.annotation_2;align=left;labelPosition=right;pointerEvents=1;labelBackgroundColor=#FFE6CC;fontSize=24;fontColor=#FFFFFF;rotation=-180;" parent="1" vertex="1">
                    <mxGeometry x="270" y="10" width="50" height="100" as="geometry"/>
                </mxCell>
                <mxCell id="30" value="&lt;font color=&quot;#f19c99&quot;&gt;100% JS&lt;/font&gt;" style="text;html=1;align=center;verticalAlign=middle;resizable=0;points=[];autosize=1;strokeColor=none;fillColor=none;fontSize=24;fontColor=#FFFFFF;" parent="1" vertex="1">
                    <mxGeometry x="175" y="45" width="110" height="30" as="geometry"/>
                </mxCell>
            </root>
        </mxGraphModel>
    </diagram>
</mxfile>